<svg id="Layer_1" data-name="Layer 1" xmlns="http://www.w3.org/2000/svg" viewBox="0 0 1280 720"><defs><style>.cls-1{fill:#140c00;}.cls-2{fill:#f8f8f7;}.cls-3{fill:#f1f1f0;}.cls-4{fill:#f1f1f1;}.cls-5{fill:#eeeded;}.cls-6{fill:#ececeb;}.cls-7{fill:#c3a422;}.cls-8{fill:#c9a923;}.cls-9{fill:#c6a622;}.cls-10{fill:#c5a522;}.cls-11{fill:#c3a322;}.cls-12{fill:#c4a522;}.cls-13{fill:#c1a321;}.cls-14{fill:#bc9e20;}.cls-15{fill:#1c1408;}.cls-16{fill:#1b1408;}.cls-17{fill:#1a1101;}</style></defs><title>LogoFinal</title><path class="cls-1" d="M0,720V0H1280V720ZM331.46,353.51l-2.5.43q1,12,2.1,23.9a2.36,2.36,0,0,0,.41.9c4.7,7.66,9.44,15.3,14.11,23,2.28,3.74.82,6.39-3.58,6.09-3.78-.26-7.49-1.31-11.27-1.73-2.82-.31-6.91-1.69-7.49,2.35-.34,2.43,2,5.46,3.59,7.87.82,1.22,2.72,1.94,4.28,2.37,4,1.1,8.07,1.87,12.09,2.83,7.59,1.81,15.16,3.71,22.75,5.49,9.65,2.25,19.26,4.64,29,6.54,7.93,1.56,16,3.66,24,3.4,10-.34,19.84-3.18,29.83-4.32,8.9-1,17.17-3.36,24.73-8.21,4.89-3.13,9.56-7.2,14.93-8.85,8.51-2.6,11-9.79,13.93-16.2,3.09-6.84,4.41-14.54,6-22,1.49-7.19,2.35-14.52-3-20.86-1.06-1.25-2.26-2.75-2.49-4.27-1.17-7.83-7.63-11-13.05-14.89-18.38-13.11-39.4-13.17-60.75-12.24-13.05.58-26.23.77-39.2-.49-5.76-.56-12.27-4-16.4-8.15-5.67-5.71-7.22-14-7.34-22.24-.11-7.35-.73-14.74,5.91-20.15,1.07-.87,1.19-2.83,2.19-3.86,2.83-2.9,5.54-6.12,8.91-8.23,6.3-3.94,13.45-5,20.92-5.5a128.36,128.36,0,0,1,57.36,9.42c10,4,18.15,11.58,24,21.1,5.72,9.36,11.31,18.8,17.31,28,1.53,2.33,4.42,3.77,6.68,5.63l.67-.9-24.45-38.89.93-1c5,1.67,10,3.32,14.94,5,2.67.9,5.26,2.26,8,2.65a5.62,5.62,0,0,0,4.38-2.18c.51-.73-.34-3.31-1.33-4.05a41.57,41.57,0,0,0-8.93-5.24c-7.35-3-14.89-5.52-22.29-8.41C474,264.8,467.08,261,459.69,259c-23.38-6.33-46.9-10.55-71.21-4.26-16.4,4.24-29.16,13.42-39.19,26.52a36.82,36.82,0,0,0-7.05,15c-1.75,9.4-2,18.78,2.24,28.24,6.37,14.26,17.7,22.24,31.33,27.66,8.71,3.47,18,4.42,27.4,4.27,14.07-.23,28.32,1.09,42.17-.74,15.41-2,27.18,2.12,37.65,13.08,7.24,7.58,8.84,16.59,5.65,25.37-2.85,7.83-8.19,15-13.52,21.56-3,3.64-7.89,6.14-12.41,8-20.24,8.23-41.34,9.42-62.68,6-18.89-3-35-11.24-46.5-27.17-2.6-3.61-4.76-7.63-7.82-10.79-2.82-2.91-4.84-5.63-4.79-9.9,0-1.79-1.32-3.62-2.13-5.4-1.56-3.42-3.55-6.7-4.67-10.25C332.87,362,332.32,357.72,331.46,353.51ZM866.8,309.79a31.79,31.79,0,0,1-2.55,4.34c-7.86,9-15.29,18.47-23.84,26.77-7.77,7.56-12.83,16.81-18.83,25.5-6.58,9.53-12.72,19.43-20,28.39-6.91,8.5-15.11,15.94-22.6,24-3.42,3.67-6.51,7.66-10.13,11.94a21.56,21.56,0,0,0,3.25,1.06c7,.88,11.65-3.78,16.07-7.72,17.76-15.82,32.12-34.68,45.09-54.42,12.54-19.09,27.33-36.1,43.67-51.84,7-6.73,15.1-12,25.54-12.13,4,0,7.92-.83,11.88-1.15,21.12-1.7,42.26-2.23,63.21,1.42a71,71,0,0,1,19.56,6.69c6,3,6,7,1.4,12.07-1.36,1.5-2.45,3.26-4.16,5.57,8.41,1,13.13-3.1,17.42-8.19,3.06-3.61,3-7.51-.51-10.09a53.09,53.09,0,0,0-14.2-7.67c-13.59-4.59-27.78-4.18-41.94-4.19s-28.58-.59-42.87-1.1c-4.75-.17-6.28-2.3-3.74-5.34,4.44-5.3,9.5-10.09,14.41-15,5.87-5.84,12.11-11.32,17.62-17.47,1.51-1.68,1-5.19,1.4-7.86-2.52.26-5.48-.23-7.46.93a82,82,0,0,0-14.6,10.29c-11.93,11.13-23.37,22.8-35.2,34-1.88,1.79-4.74,3.47-7.22,3.57-22,.9-43.92,1.41-65.88,2.09-11.81.37-23.63.63-35.42,1.33q-38,2.29-76,5c-5,.36-10,1.39-15,2.11,0,.76.09,1.51.14,2.26,3.73,0,7.48.17,11.2,0,20.4-1.05,40.79-2.35,61.2-3.24,10-.44,20,0,29.94-.28,16.29-.43,32.57-1.23,48.86-1.64C846.17,309.59,855.8,309.79,866.8,309.79Zm-65,62.71c-1.56.72-3.18,1.34-4.67,2.18-10.44,5.81-20.7,11.95-31.35,17.33-3.63,1.84-8.2,2.16-12.39,2.4-1.7.1-4.68-1.63-5-3-.38-1.8.77-4.57,2.2-6,2.58-2.5,5.89-4.25,8.84-6.4,7-5.07,14.22-9.83,20.77-15.4,4.51-3.84,5.15-10.2,2.73-14.07-4-6.46-7.77-8.34-14.45-6.46-15.57,4.39-25.38,15.45-31.48,29.62-2.21,5.14-2.9,12,1.12,17.17,6.86,8.83,19.18,11.48,29.34,7,3.64-1.61,7.3-3.17,10.88-4.9A63.41,63.41,0,0,0,801.76,372.5Zm-217,10a42.13,42.13,0,0,0-4.28,1.9c-7.76,4.49-15.32,9.37-23.28,13.47-6.37,3.28-12.48,8.12-20.36,6.69-2-.37-5.2-1.72-5.48-3.1-.39-1.91,1-4.78,2.49-6.31,2.43-2.42,5.66-4,8.48-6.06,7-5.06,14.22-9.83,20.77-15.39,4.51-3.83,5.18-10.21,2.78-14.07-4-6.46-7.76-8.36-14.44-6.49-15.58,4.36-25.39,15.43-31.5,29.59-2.23,5.15-2.89,12,1.09,17.18,6.78,8.83,19.17,11.51,29.32,7,3.64-1.61,7.3-3.18,10.88-4.9A64.25,64.25,0,0,0,584.8,382.51Zm79.54-7.32c-2,0-2.53-.14-2.92,0a22.94,22.94,0,0,0-4.51,2.11C644.73,386,630.54,390.12,616.74,395c-2.94,1-7.7.37-10.06-1.49-1.82-1.43-1.29-6-1.58-9.13a5.58,5.58,0,0,1,1.09-2.73c5.39-9.49,12.79-16.85,22.78-21.49,7-3.26,8.66-2.65,12.25,3.75.92,1.65,3.26,2.52,4.95,3.75.93-2.29,2.92-4.73,2.61-6.84-1.12-7.67-9.77-10.92-17.1-6.14-11.35,7.4-22.51,15.14-33.32,23.3-3,2.25-5.11,6.24-6.5,9.86-2.58,6.71,0,12.19,6.65,13.5,6.77,1.35,13.74,2.23,20.49-1,13.44-6.46,27-12.63,40.41-19.2C661.23,380.24,662.28,377.75,664.34,375.19ZM736.89,350c-3.59,4.24-7.12,3.43-10.62,1.13-1.94-1.27-3.7-2.81-5.55-4.22-2.92-2.2-5.2-2.17-8.13.7a239,239,0,0,1-18.4,16c-1.41,1.13-5.52,1.54-5.81,1-3-5.88-6.1-3.56-9.64-.77-1.94,1.53-4.33,2.45-6.35,3.88s-4.11,3.32-6.15,5l.9,1.88,14.43-3.34,1,2c-2.86,3.07-5.57,6.31-8.62,9.19-3.91,3.7-6.49,7.8-5.79,14.07,1.51-.72,2.84-1,3.71-1.83,4.74-4.38,9.6-8.68,14-13.4,6.22-6.66,11.94-13.78,18.1-20.5,5.18-5.65,11.17-8.29,18.52-3.57a17.9,17.9,0,0,0,4.59,1.86C732.7,360.65,737.86,356.37,736.89,350ZM477.81,465.55c5.53,7.28,2.29,14.66,2.74,21.75-3.95-5.74-7.45-11.56-10.89-17.42-3.17-5.4-5-6-11.09-3.67,3.78,4.53,3.91,26.59.1,32.77h9.11c-4.12-7.88-1.61-15.68-1.65-23.41,4.84,7.06,9.06,14.33,13.53,21.43.88,1.4,2.73,2.19,4.14,3.27,1.18-9.13,1-17.26,1.26-25.38.09-3,1.12-6,1.77-9.34Zm361.62,33.71c5.81,0,10.72.12,15.63,0,4.36-.14,8.41-1.26,9.89-6,1.56-5.05-.05-9.06-5.12-11.68,4.37-2.9,6.41-6.55,4.61-11.29-1.72-4.53-6-4.83-10-5-4.7-.18-9.41,0-14.62,0C844.34,472.05,844.28,493.7,839.43,499.26Zm-289.51-.2h23.71V488.37c-4.28,5.8-8,10.62-15.13,6.74,0-2.23-.16-4.88.06-7.5.12-1.31.71-3.48,1.46-3.65a10.38,10.38,0,0,1,5.15.62,18.89,18.89,0,0,1,3.76,2.14c.29-1.56.67-3.11.86-4.69a12.36,12.36,0,0,0,0-3.49c-.12-.71-.69-1.87-1.13-1.91-.8-.07-2.15.34-2.41.92-1.77,4-4.66,2.54-7.72,2a35.69,35.69,0,0,1,.07-5.7c.29-1.76,1.11-4.89,1.69-4.89a28.9,28.9,0,0,1,8.83,1.49c1.4.47,2.39,2.17,3.57,3.32.44-1.8,1-3.57,1.28-5.39a9.42,9.42,0,0,0-.32-2.68H550C554.26,471.3,554.23,493.69,549.92,499.06Zm261.56-33.51c1.13,1.79,2.63,3.06,2.66,4.37.18,7.32.22,14.65-.13,21.95-.16,3.24-2.64,4.81-5.94,4.78-3.14,0-6.05-1-6.11-4.47-.15-8.88-2.35-17.94,1.8-26.5h-9.43c.62,3.23,1.5,6.06,1.65,8.93.28,5.31-.07,10.66.22,16,.34,6.08,4.09,9.21,10.68,9.44,6.78.24,11.44-2.8,12.07-8.56.57-5.1.27-10.3.62-15.43.24-3.41,1-6.79,1.51-10.48Zm-307.3,0c1.52,3.41,3,6.1,3.95,9,2.26,6.93,4.15,14,6.47,20.9.58,1.73,2.23,3.08,3.39,4.61,1.13-1.42,2.68-2.67,3.33-4.28,4.06-10,7.92-20.11,11.8-30.07h-9.51c1,2,2.71,3.92,2.35,5.23-1.86,6.56-4.26,13-6.47,19.44-2.57-5.14-3.91-10.06-5.48-14.91-1.13-3.48-2.19-6.81,2.92-9.89ZM600.27,500c7,.23,11.29-2.21,12.51-6.84,1.36-5.19-.78-9.25-6.63-12.54-1.45-.82-3.33-1.27-4.3-2.46a16.53,16.53,0,0,1-3.47-6.51c-.19-.88,2.41-3.45,3.49-3.31,2.3.3,4.48,1.79,6.63,2.94a19.51,19.51,0,0,1,2.79,2.14,22.07,22.07,0,0,0,1.18-3.46c.59-3.36-.85-5-4.34-4.88-2.8.12-6-.69-8.32.41-2.69,1.29-5.86,3.91-6.48,6.51s1.33,6.05,2.81,8.77c.76,1.41,2.92,2.08,4.47,3,1.28.78,3.09,1.17,3.8,2.28,1.33,2.05,2.61,4.48,2.73,6.82.06,1.16-2.58,3.56-3.83,3.45-2.31-.19-4.54-1.75-6.73-2.88a26.32,26.32,0,0,1-3.15-2.26,15.41,15.41,0,0,0-1.1,3.5C591.86,501.68,597.89,498.41,600.27,500Zm55.1-24.78,1.33-1.07v-8.67H629.92a19.8,19.8,0,0,0-.23,3.69c.24,1.86.75,3.69,1.14,5.52a25.14,25.14,0,0,1,3.51-3.95,10.26,10.26,0,0,1,4.63-1.9c.39,0,1.56,2.24,1.59,3.48.17,6,.28,12,0,18-.14,2.82-1.2,5.59-1.93,8.73h10.12c-5.41-9.81-1.21-20.12-3.17-31.32,3,1.21,5.09,1.57,6.51,2.74S654.3,473.59,655.37,475.22Zm78.74-1.42,1.48-.84c-.66-2.48-.54-6.31-2.11-7.21-7.74-4.45-18.54.94-21,9.95-4.81,17.49,3.79,26.83,21.38,23.2a3.15,3.15,0,0,0,.85-.5v-9.15a42,42,0,0,0-3.61,3.91c-3.11,4.68-8.83,5-11.2.12a23.14,23.14,0,0,1,.18-21.61c2.65-5,7.68-4.83,11.14-.25A15.48,15.48,0,0,0,734.11,473.8Zm28.25,22.08c-1.57-11.11-.71-25.57,1.76-30.11H753c4.37,4.93,4.37,28.14.16,33.33H776c.2-2.88.5-5.51.51-8.15,0-.73-.85-1.46-1.31-2.2-.72.5-2,.93-2.07,1.52C772.14,496.94,767.51,496.59,762.36,495.88ZM440.3,499.2c-4.55-5-4.67-26.88-.88-33.46H428.33c3.9,4.94,4,27.25.37,33.46Z"/><path class="cls-2" d="M331.46,353.51c.86,4.21,1.41,8.52,2.7,12.6,1.12,3.55,3.11,6.83,4.67,10.25.81,1.78,2.16,3.61,2.13,5.4,0,4.27,2,7,4.79,9.9,3.06,3.16,5.22,7.18,7.82,10.79,11.48,15.93,27.61,24.13,46.5,27.17,21.34,3.43,42.44,2.24,62.68-6,4.52-1.83,9.45-4.33,12.41-8,5.33-6.56,10.67-13.73,13.52-21.56,3.19-8.78,1.59-17.79-5.65-25.37-10.47-11-22.24-15.12-37.65-13.08-13.85,1.83-28.1.51-42.17.74-9.4.15-18.69-.8-27.4-4.27-13.63-5.42-25-13.4-31.33-27.66-4.23-9.46-4-18.84-2.24-28.24a36.82,36.82,0,0,1,7.05-15c10-13.1,22.79-22.28,39.19-26.52,24.31-6.29,47.83-2.07,71.21,4.26,7.39,2,14.29,5.8,21.48,8.61,7.4,2.89,14.94,5.41,22.29,8.41a41.57,41.57,0,0,1,8.93,5.24c1,.74,1.84,3.32,1.33,4.05a5.62,5.62,0,0,1-4.38,2.18c-2.74-.39-5.33-1.75-8-2.65-5-1.69-10-3.34-14.94-5l-.93,1,24.45,38.89-.67.9c-2.26-1.86-5.15-3.3-6.68-5.63-6-9.17-11.59-18.61-17.31-28-5.81-9.52-14-17.08-24-21.1a128.36,128.36,0,0,0-57.36-9.42c-7.47.51-14.62,1.56-20.92,5.5-3.37,2.11-6.08,5.33-8.91,8.23-1,1-1.12,3-2.19,3.86-6.64,5.41-6,12.8-5.91,20.15.12,8.24,1.67,16.53,7.34,22.24,4.13,4.16,10.64,7.59,16.4,8.15,13,1.26,26.15,1.07,39.2.49,21.35-.93,42.37-.87,60.75,12.24,5.42,3.87,11.88,7.06,13.05,14.89.23,1.52,1.43,3,2.49,4.27,5.39,6.34,4.53,13.67,3,20.86-1.55,7.43-2.87,15.13-6,22-2.89,6.41-5.42,13.6-13.93,16.2-5.37,1.65-10,5.72-14.93,8.85-7.56,4.85-15.83,7.19-24.73,8.21-10,1.14-19.85,4-29.83,4.32-7.95.26-16-1.84-24-3.4-9.72-1.9-19.33-4.29-29-6.54-7.59-1.78-15.16-3.68-22.75-5.49-4-1-8.1-1.73-12.09-2.83-1.56-.43-3.46-1.15-4.28-2.37-1.63-2.41-3.93-5.44-3.59-7.87.58-4,4.67-2.66,7.49-2.35,3.78.42,7.49,1.47,11.27,1.73,4.4.3,5.86-2.35,3.58-6.09-4.67-7.69-9.41-15.33-14.11-23a2.36,2.36,0,0,1-.41-.9Q330,365.9,329,353.94Z"/><path class="cls-3" d="M866.8,309.79c-11,0-20.63-.2-30.25,0-16.29.41-32.57,1.21-48.86,1.64-10,.27-20-.16-29.94.28-20.41.89-40.8,2.19-61.2,3.24-3.72.2-7.47,0-11.2,0-.05-.75-.1-1.5-.14-2.26,5-.72,9.95-1.75,15-2.11q38-2.69,76-5c11.79-.7,23.61-1,35.42-1.33,22-.68,43.93-1.19,65.88-2.09,2.48-.1,5.34-1.78,7.22-3.57,11.83-11.24,23.27-22.91,35.2-34a82,82,0,0,1,14.6-10.29c2-1.16,4.94-.67,7.46-.93-.41,2.67.11,6.18-1.4,7.86-5.51,6.15-11.75,11.63-17.62,17.47-4.91,4.89-10,9.68-14.41,15-2.54,3-1,5.17,3.74,5.34,14.29.51,28.58,1.1,42.87,1.1s28.35-.4,41.94,4.19a53.09,53.09,0,0,1,14.2,7.67c3.5,2.58,3.57,6.48.51,10.09-4.29,5.09-9,9.15-17.42,8.19,1.71-2.31,2.8-4.07,4.16-5.57,4.57-5.06,4.6-9-1.4-12.07a71,71,0,0,0-19.56-6.69c-21-3.65-42.09-3.12-63.21-1.42-4,.32-7.91,1.11-11.88,1.15-10.44.1-18.55,5.4-25.54,12.13-16.34,15.74-31.13,32.75-43.67,51.84-13,19.74-27.33,38.6-45.09,54.42-4.42,3.94-9.09,8.6-16.07,7.72a21.56,21.56,0,0,1-3.25-1.06c3.62-4.28,6.71-8.27,10.13-11.94,7.49-8,15.69-15.48,22.6-24,7.27-9,13.41-18.86,20-28.39,6-8.69,11.06-17.94,18.83-25.5,8.55-8.3,16-17.77,23.84-26.77A31.79,31.79,0,0,0,866.8,309.79Z"/><path class="cls-4" d="M801.76,372.5A63.41,63.41,0,0,1,778.33,392c-3.58,1.73-7.24,3.29-10.88,4.9-10.16,4.51-22.48,1.86-29.34-7-4-5.16-3.33-12-1.12-17.17,6.1-14.17,15.91-25.23,31.48-29.62,6.68-1.88,10.4,0,14.45,6.46,2.42,3.87,1.78,10.23-2.73,14.07-6.55,5.57-13.79,10.33-20.77,15.4-2.95,2.15-6.26,3.9-8.84,6.4-1.43,1.39-2.58,4.16-2.2,6,.29,1.34,3.27,3.07,5,3,4.19-.24,8.76-.56,12.39-2.4,10.65-5.38,20.91-11.52,31.35-17.33C798.58,373.84,800.2,373.22,801.76,372.5Zm-31.29-14c.5-3.44-1.66-4.24-4.45-4.44-7-.52-19.08,9.75-19.59,17-.1,1.41.72,3.64,1.8,4.21a7.91,7.91,0,0,0,5.58.5,20.08,20.08,0,0,0,6.43-3.68C764.74,368.42,769.49,364.86,770.47,358.47Z"/><path class="cls-3" d="M584.8,382.51A64.25,64.25,0,0,1,561.27,402c-3.58,1.72-7.24,3.29-10.88,4.9-10.15,4.5-22.54,1.82-29.32-7-4-5.17-3.32-12-1.09-17.18,6.11-14.16,15.92-25.23,31.5-29.59,6.68-1.87,10.42,0,14.44,6.49,2.4,3.86,1.73,10.24-2.78,14.07-6.55,5.56-13.79,10.33-20.77,15.39-2.82,2-6,3.64-8.48,6.06-1.53,1.53-2.88,4.4-2.49,6.31.28,1.38,3.43,2.73,5.48,3.1,7.88,1.43,14-3.41,20.36-6.69,8-4.1,15.52-9,23.28-13.47A42.13,42.13,0,0,1,584.8,382.51ZM548.08,364c-6.62,0-18,10.25-18.76,16.93-.4,3.44,2.76,6.69,6,5.3,7.5-3.27,14.55-7.48,17.64-15.74C554.64,366,553.06,364.05,548.08,364Z"/><path class="cls-5" d="M664.34,375.19c-2.06,2.56-3.11,5.05-4.93,5.94-13.39,6.57-27,12.74-40.41,19.2-6.75,3.25-13.72,2.37-20.49,1-6.6-1.31-9.23-6.79-6.65-13.5,1.39-3.62,3.52-7.61,6.5-9.86,10.81-8.16,22-15.9,33.32-23.3,7.33-4.78,16-1.53,17.1,6.14.31,2.11-1.68,4.55-2.61,6.84-1.69-1.23-4-2.1-4.95-3.75-3.59-6.4-5.24-7-12.25-3.75-10,4.64-17.39,12-22.78,21.49a5.58,5.58,0,0,0-1.09,2.73c.29,3.17-.24,7.7,1.58,9.13,2.36,1.86,7.12,2.53,10.06,1.49,13.8-4.89,28-9,40.17-17.68a22.94,22.94,0,0,1,4.51-2.11C661.81,375.05,662.33,375.19,664.34,375.19Z"/><path class="cls-6" d="M736.89,350c1,6.35-4.19,10.63-9.83,9a17.9,17.9,0,0,1-4.59-1.86c-7.35-4.72-13.34-2.08-18.52,3.57-6.16,6.72-11.88,13.84-18.1,20.5-4.39,4.72-9.25,9-14,13.4-.87.81-2.2,1.11-3.71,1.83-.7-6.27,1.88-10.37,5.79-14.07,3-2.88,5.76-6.12,8.62-9.19l-1-2-14.43,3.34-.9-1.88c2-1.68,4-3.48,6.15-5s4.41-2.35,6.35-3.88c3.54-2.79,6.65-5.11,9.64.77.29.57,4.4.16,5.81-1a239,239,0,0,0,18.4-16c2.93-2.87,5.21-2.9,8.13-.7,1.85,1.41,3.61,2.95,5.55,4.22C729.77,353.45,733.3,354.26,736.89,350Z"/><path class="cls-7" d="M477.81,465.55h9c-.65,3.31-1.68,6.31-1.77,9.34-.24,8.12-.08,16.25-1.26,25.38-1.41-1.08-3.26-1.87-4.14-3.27-4.47-7.1-8.69-14.37-13.53-21.43,0,7.73-2.47,15.53,1.65,23.41h-9.11c3.81-6.18,3.68-28.24-.1-32.77,6.08-2.37,7.92-1.73,11.09,3.67,3.44,5.86,6.94,11.68,10.89,17.42C480.1,480.21,483.34,472.83,477.81,465.55Z"/><path class="cls-8" d="M839.43,499.26c4.85-5.56,4.91-27.21.36-34.06,5.21,0,9.92-.14,14.62,0,4,.16,8.31.46,10,5,1.8,4.74-.24,8.39-4.61,11.29,5.07,2.62,6.68,6.63,5.12,11.68-1.48,4.77-5.53,5.89-9.89,6C850.15,499.38,845.24,499.26,839.43,499.26Zm8.82-1.62c4.23-1.76,8-2.54,10.49-4.72,1.13-1,.75-6-.58-7-2.54-1.87-6.25-2.16-9.91-3.23Zm0-17.64c4.09.23,8.21,1.2,10-3.07.77-1.8.65-5.59-.43-6.26-2.64-1.63-6.08-2-9.62-2.94Z"/><path class="cls-9" d="M549.92,499.06c4.31-5.37,4.34-27.76.05-33.39h23.64a9.42,9.42,0,0,1,.32,2.68c-.28,1.82-.84,3.59-1.28,5.39-1.18-1.15-2.17-2.85-3.57-3.32a28.9,28.9,0,0,0-8.83-1.49c-.58,0-1.4,3.13-1.69,4.89a35.69,35.69,0,0,0-.07,5.7c3.06.57,6,2.05,7.72-2,.26-.58,1.61-1,2.41-.92.44,0,1,1.2,1.13,1.91a12.36,12.36,0,0,1,0,3.49c-.19,1.58-.57,3.13-.86,4.69a18.89,18.89,0,0,0-3.76-2.14A10.38,10.38,0,0,0,560,484c-.75.17-1.34,2.34-1.46,3.65-.22,2.62-.06,5.27-.06,7.5,7.12,3.88,10.85-.94,15.13-6.74v10.69Z"/><path class="cls-10" d="M811.48,465.55h9.6c-.55,3.69-1.27,7.07-1.51,10.48-.35,5.13-.05,10.33-.62,15.43-.63,5.76-5.29,8.8-12.07,8.56-6.59-.23-10.34-3.36-10.68-9.44-.29-5.31.06-10.66-.22-16-.15-2.87-1-5.7-1.65-8.93h9.43c-4.15,8.56-2,17.62-1.8,26.5.06,3.49,3,4.45,6.11,4.47,3.3,0,5.78-1.54,5.94-4.78.35-7.3.31-14.63.13-21.95C814.11,468.61,812.61,467.34,811.48,465.55Z"/><path class="cls-11" d="M504.18,465.54h12.75c-5.11,3.08-4,6.41-2.92,9.89,1.57,4.85,2.91,9.77,5.48,14.91,2.21-6.46,4.61-12.88,6.47-19.44.36-1.31-1.39-3.21-2.35-5.23h9.51c-3.88,10-7.74,20.05-11.8,30.07-.65,1.61-2.2,2.86-3.33,4.28-1.16-1.53-2.81-2.88-3.39-4.61-2.32-6.91-4.21-14-6.47-20.9C507.19,471.64,505.7,469,504.18,465.54Z"/><path class="cls-12" d="M600.27,500c-2.38-1.59-8.41,1.68-7.94-5.29a15.41,15.41,0,0,1,1.1-3.5,26.32,26.32,0,0,0,3.15,2.26c2.19,1.13,4.42,2.69,6.73,2.88,1.25.11,3.89-2.29,3.83-3.45-.12-2.34-1.4-4.77-2.73-6.82-.71-1.11-2.52-1.5-3.8-2.28-1.55-.95-3.71-1.62-4.47-3-1.48-2.72-3.43-6.18-2.81-8.77s3.79-5.22,6.48-6.51c2.31-1.1,5.52-.29,8.32-.41,3.49-.14,4.93,1.52,4.34,4.88a22.07,22.07,0,0,1-1.18,3.46,19.51,19.51,0,0,0-2.79-2.14c-2.15-1.15-4.33-2.64-6.63-2.94-1.08-.14-3.68,2.43-3.49,3.31a16.53,16.53,0,0,0,3.47,6.51c1,1.19,2.85,1.64,4.3,2.46,5.85,3.29,8,7.35,6.63,12.54C611.56,497.79,607.3,500.23,600.27,500Z"/><path class="cls-8" d="M655.37,475.22c-1.07-1.63-1.85-3.61-3.28-4.79s-3.5-1.53-6.51-2.74c2,11.2-2.24,21.51,3.17,31.32H638.63c.73-3.14,1.79-5.91,1.93-8.73.28-6,.17-12,0-18,0-1.24-1.2-3.53-1.59-3.48a10.26,10.26,0,0,0-4.63,1.9,25.14,25.14,0,0,0-3.51,3.95c-.39-1.83-.9-3.66-1.14-5.52a19.8,19.8,0,0,1,.23-3.69H656.7v8.67Z"/><path class="cls-10" d="M734.11,473.8a15.48,15.48,0,0,1-2.91-2.38c-3.46-4.58-8.49-4.74-11.14.25a23.14,23.14,0,0,0-.18,21.61c2.37,4.89,8.09,4.56,11.2-.12a42,42,0,0,1,3.61-3.91v9.15a3.15,3.15,0,0,1-.85.5c-17.59,3.63-26.19-5.71-21.38-23.2,2.48-9,13.28-14.4,21-9.95,1.57.9,1.45,4.73,2.11,7.21Z"/><path class="cls-13" d="M762.36,495.88c5.15.71,9.78,1.06,10.73-5.61.09-.59,1.35-1,2.07-1.52.46.74,1.32,1.47,1.31,2.2,0,2.64-.31,5.27-.51,8.15H753.12c4.21-5.19,4.21-28.4-.16-33.33h11.16C761.65,470.31,760.79,484.77,762.36,495.88Z"/><path class="cls-14" d="M440.3,499.2H428.7c3.62-6.21,3.53-28.52-.37-33.46h11.09C435.63,472.32,435.75,494.19,440.3,499.2Z"/><path class="cls-15" d="M770.47,358.47c-1,6.39-5.73,9.95-10.23,13.61a20.08,20.08,0,0,1-6.43,3.68,7.91,7.91,0,0,1-5.58-.5c-1.08-.57-1.9-2.8-1.8-4.21.51-7.27,12.54-17.54,19.59-17C768.81,354.23,771,355,770.47,358.47Z"/><path class="cls-16" d="M548.08,364c5,0,6.56,1.92,4.84,6.49-3.09,8.26-10.14,12.47-17.64,15.74-3.2,1.39-6.36-1.86-6-5.3C530.08,374.28,541.46,364,548.08,364Z"/><path class="cls-17" d="M848.25,497.64V482.69c3.66,1.07,7.37,1.36,9.91,3.23,1.33,1,1.71,6,.58,7C856.21,495.1,852.48,495.88,848.25,497.64Z"/><path class="cls-17" d="M848.25,480V467.73c3.54,1,7,1.31,9.62,2.94,1.08.67,1.2,4.46.43,6.26C856.46,481.2,852.34,480.23,848.25,480Z"/></svg>